inDegrees=yes
name=ik_S46_A08_T01
DataType=double
version=3
OpenSimVersion=4.3-2021-08-27-4bc7ad9
endheader
time	pelvis_tilt	pelvis_list	pelvis_rotation	pelvis_tx	pelvis_ty	pelvis_tz	hip_flexion_r	hip_adduction_r	hip_rotation_r	knee_angle_r	knee_angle_r_beta	ankle_angle_r	subtalar_angle_r	mtp_angle_r	hip_flexion_l	hip_adduction_l	hip_rotation_l	knee_angle_l	knee_angle_l_beta	ankle_angle_l	subtalar_angle_l	mtp_angle_l	lumbar_extension	lumbar_bending	lumbar_rotation	arm_flex_r	arm_add_r	arm_rot_r	elbow_flex_r	pro_sup_r	wrist_flex_r	wrist_dev_r	arm_flex_l	arm_add_l	arm_rot_l	elbow_flex_l	pro_sup_l	wrist_flex_l	wrist_dev_l
0	0	0	0	0	0.9399999999999999	0	0	0	0	0	0	0	0	0	0	0	0	0	0	0	0	0	0	0	0	0	0	0	0	89.99999999963507	0	0	0	0	0	0	89.99999999869995	0	0
0.02	-11.38266733611353	-1.40299192715354	26.21711596663461	0	0.9399999999999999	0	3.2624471875306	-1.534910800667025	-1.099560217807767	5.062576555671295	0.0883586295307381	0	0	0	3.2624471875306	-1.534910800667025	-1.099560217807767	5.062576555671295	0.0883586295307381	0	0	0	-8.060528093947958	-4.425061637946573	4.845359111239919	13.22058119002351	-7.44677733997428	6.147049164866552	63.80400253354947	138.070624575466	0	0	11.71592205111516	-5.488755305542877	3.484837755240132	57.02742517861785	126.924354960343	0	0
0.04	-10.41098495951118	-2.497597972906902	27.4707186955156	0	0.9399999999999999	0	29.45255096692381	-11.94953223588331	-9.219869599949771	39.91738946619679	0.6966898749860359	0	0	0	29.45255096692381	-11.94953223588331	-9.219869599949771	39.91738946619679	0.6966898749860359	0	0	0	-8.48019291391036	-2.826626691224829	3.849839971666602	13.2213742936339	-7.462255742542324	6.146675216436871	63.77302488391588	138.0720707919501	0	0	11.72773877363096	-5.472687616387475	3.47907246816983	56.99379031006107	126.9418696730435	0	0
0.06	-10.40703502025701	-2.49369095779879	27.46301782332623	0	0.9399999999999999	0	29.46955198085831	-11.94142181791321	-9.221825428743678	39.92831019312992	0.6968804776277301	0	0	0	29.46955198085831	-11.94142181791321	-9.221825428743678	39.92831019312992	0.6968804776277301	0	0	0	-8.476377841327725	-2.820743452152342	3.845183893255366	13.21695691215848	-7.465096674004341	6.162072305381499	63.79034649805373	138.0226500099319	0	0	11.75784845522168	-5.478339535699477	3.482424249196517	57.00547094811999	126.9105347072998	0	0
0.08	-10.40813174983703	-2.48290301236771	27.47940542794896	0	0.9399999999999999	0	29.49364705460912	-11.9324134911813	-9.224285013652423	39.94458451195541	0.6971645180747542	0	0	0	29.49364705460912	-11.9324134911813	-9.224285013652423	39.94458451195541	0.6971645180747542	0	0	0	-8.474422546270947	-2.80516336044743	3.844189132089307	13.23438342949727	-7.457636702318052	6.196751547314626	63.78212567208407	138.0402317545063	0	0	11.74064176870975	-5.447724972565187	3.490996128080361	56.96700040270358	126.9224017185411	0	0
0.1	-10.4005162575076	-2.473497638119583	27.47756180958627	0	0.9399999999999999	0	29.47899718320853	-11.93492132026307	-9.223192385162749	39.93395659435004	0.6969790259199097	0	0	0	29.47899718320853	-11.93492132026307	-9.223192385162749	39.93395659435004	0.6969790259199097	0	0	0	-8.461877320277418	-2.804344482314221	3.846392739305561	13.22520260239002	-7.45335404358155	6.186509223019394	63.76445333173775	138.068303668053	0	0	11.76472606338944	-5.45302981986789	3.48850367638821	56.93519211088938	126.9531669968383	0	0
0.12	-10.3958095054574	-2.464321931342647	27.47563826621941	0	0.9399999999999999	0	29.49141414356533	-11.92792802965506	-9.22476834111489	39.94162236750515	0.6971128189011774	0	0	0	29.49141414356533	-11.92792802965506	-9.22476834111489	39.94162236750515	0.6971128189011774	0	0	0	-8.454427850395067	-2.795837197766397	3.845701778180898	13.23440621021726	-7.455634604484063	6.17748328739335	63.7612576838182	138.0303555146464	0	0	11.78208543379845	-5.457538901593388	3.490042097763991	56.91523917312719	126.9347989025757	0	0
0.14	-10.39296995629218	-2.455564996019934	27.47207117341553	0	0.9399999999999999	0	29.46910657289529	-11.93360846360668	-9.222868226172821	39.92591573033254	0.6968386863680993	0	0	0	29.46910657289529	-11.93360846360668	-9.222868226172821	39.92591573033254	0.6968386863680993	0	0	0	-8.445832088774196	-2.794914944960333	3.847342256223953	13.24807939638744	-7.448735139985749	6.167194602354218	63.70925272563203	138.0787362896574	0	0	11.8022068167057	-5.446526318602589	3.480310211288206	56.81174838398556	126.9936737080446	0	0
